<svg width="40" height="40" viewBox="0 0 40 40" fill="none" xmlns="http://www.w3.org/2000/svg">
<path d="M37.2727 14.8014C37.2727 13.775 37.2727 13.2619 37.0114 13.0242C36.7846 12.8181 36.4444 12.7086 36.0962 12.7299C35.695 12.7544 35.2277 13.1173 34.2931 13.843L26.3636 20L34.2931 26.157C35.2277 26.8828 35.695 27.2456 36.0962 27.2701C36.4444 27.2914 36.7846 27.182 37.0114 26.9758C37.2727 26.7382 37.2727 26.225 37.2727 25.1987V14.8014Z" fill="#9D50FF"/>
<path d="M12.7273 18.1558C12.7273 16.5739 12.7273 15.7829 13.0245 15.1787C13.286 14.6472 13.7032 14.215 14.2164 13.9442C14.7998 13.6364 15.5635 13.6364 17.0909 13.6364H22C23.5274 13.6364 24.2911 13.6364 24.8745 13.9442C25.3877 14.215 25.8049 14.6472 26.0664 15.1787C26.3637 15.7829 26.3637 16.5739 26.3637 18.1558V22.2987C26.3637 23.8807 26.3637 24.6716 26.0664 25.2759C25.8049 25.8074 25.3877 26.2395 24.8745 26.5103C24.2911 26.8182 23.5274 26.8182 22 26.8182H17.0909C15.5635 26.8182 14.7998 26.8182 14.2164 26.5103C13.7032 26.2395 13.286 25.8074 13.0245 25.2759C12.7273 24.6716 12.7273 23.8807 12.7273 22.2987V18.1558Z" fill="#9D50FF"/>
<g filter="url(#filter0_biii_11753_7261)">
<path d="M2.72729 15.8572C2.72729 12.6933 2.72729 11.1113 3.3218 9.90284C3.84475 8.83984 4.67919 7.9756 5.70553 7.43398C6.87232 6.81824 8.39974 6.81824 11.4546 6.81824H21.2727C24.3276 6.81824 25.855 6.81824 27.0218 7.43398C28.0481 7.9756 28.8826 8.83984 29.4055 9.90284C30 11.1113 30 12.6933 30 15.8572V24.1429C30 27.3068 30 28.8888 29.4055 30.0973C28.8826 31.1603 28.0481 32.0245 27.0218 32.5661C25.855 33.1819 24.3276 33.1819 21.2727 33.1819H11.4546C8.39974 33.1819 6.87232 33.1819 5.70553 32.5661C4.67919 32.0245 3.84475 31.1603 3.3218 30.0973C2.72729 28.8888 2.72729 27.3068 2.72729 24.1429V15.8572Z" fill="#9D50FF" fill-opacity="0.14"/>
</g>
<rect x="7.27246" y="12.7273" width="4.54545" height="4.54545" rx="2.27273" fill="white" fill-opacity="0.7"/>
<defs>
<filter id="filter0_biii_11753_7261" x="-3.27271" y="0.818237" width="39.2727" height="38.3636" filterUnits="userSpaceOnUse" color-interpolation-filters="sRGB">
<feFlood flood-opacity="0" result="BackgroundImageFix"/>
<feGaussianBlur in="BackgroundImageFix" stdDeviation="3"/>
<feComposite in2="SourceAlpha" operator="in" result="effect1_backgroundBlur_11753_7261"/>
<feBlend mode="normal" in="SourceGraphic" in2="effect1_backgroundBlur_11753_7261" result="shape"/>
<feColorMatrix in="SourceAlpha" type="matrix" values="0 0 0 0 0 0 0 0 0 0 0 0 0 0 0 0 0 0 127 0" result="hardAlpha"/>
<feOffset dy="-1.36364"/>
<feGaussianBlur stdDeviation="0.681818"/>
<feComposite in2="hardAlpha" operator="arithmetic" k2="-1" k3="1"/>
<feColorMatrix type="matrix" values="0 0 0 0 1 0 0 0 0 1 0 0 0 0 1 0 0 0 0.08 0"/>
<feBlend mode="normal" in2="shape" result="effect2_innerShadow_11753_7261"/>
<feColorMatrix in="SourceAlpha" type="matrix" values="0 0 0 0 0 0 0 0 0 0 0 0 0 0 0 0 0 0 127 0" result="hardAlpha"/>
<feOffset dy="1.81818"/>
<feGaussianBlur stdDeviation="0.909091"/>
<feComposite in2="hardAlpha" operator="arithmetic" k2="-1" k3="1"/>
<feColorMatrix type="matrix" values="0 0 0 0 1 0 0 0 0 1 0 0 0 0 1 0 0 0 0.1 0"/>
<feBlend mode="normal" in2="effect2_innerShadow_11753_7261" result="effect3_innerShadow_11753_7261"/>
<feColorMatrix in="SourceAlpha" type="matrix" values="0 0 0 0 0 0 0 0 0 0 0 0 0 0 0 0 0 0 127 0" result="hardAlpha"/>
<feOffset dy="-0.454545"/>
<feGaussianBlur stdDeviation="0.227273"/>
<feComposite in2="hardAlpha" operator="arithmetic" k2="-1" k3="1"/>
<feColorMatrix type="matrix" values="0 0 0 0 1 0 0 0 0 1 0 0 0 0 1 0 0 0 0.15 0"/>
<feBlend mode="normal" in2="effect3_innerShadow_11753_7261" result="effect4_innerShadow_11753_7261"/>
</filter>
</defs>
</svg>
