<svg width="40" height="40" viewBox="0 0 40 40" fill="none" xmlns="http://www.w3.org/2000/svg">
<rect x="10" y="16.3636" width="20.4545" height="18.1818" rx="3.63636" fill="#D84379"/>
<g filter="url(#filter0_biii_11753_7271)">
<rect x="3.63635" y="5.45459" width="32.7273" height="29.0909" rx="4" fill="#D84379" fill-opacity="0.14"/>
</g>
<path d="M25.454 19.7938C26.968 18.2223 29.4622 18.1542 31.0597 19.6409L36.3635 24.5767V30.5453C36.3635 32.7545 34.5726 34.5453 32.3635 34.5453H20.6502C17.1224 34.5453 15.3219 30.3107 17.7695 27.7701L25.454 19.7938Z" fill="white" fill-opacity="0.7"/>
<path d="M10.909 15.4545C12.4153 15.4545 13.6363 14.2335 13.6363 12.7273C13.6363 11.221 12.4153 10 10.909 10C9.4028 10 8.18176 11.221 8.18176 12.7273C8.18176 14.2335 9.4028 15.4545 10.909 15.4545Z" fill="white" fill-opacity="0.7"/>
<defs>
<filter id="filter0_biii_11753_7271" x="-2.36365" y="-0.54541" width="44.7273" height="41.0909" filterUnits="userSpaceOnUse" color-interpolation-filters="sRGB">
<feFlood flood-opacity="0" result="BackgroundImageFix"/>
<feGaussianBlur in="BackgroundImageFix" stdDeviation="3"/>
<feComposite in2="SourceAlpha" operator="in" result="effect1_backgroundBlur_11753_7271"/>
<feBlend mode="normal" in="SourceGraphic" in2="effect1_backgroundBlur_11753_7271" result="shape"/>
<feColorMatrix in="SourceAlpha" type="matrix" values="0 0 0 0 0 0 0 0 0 0 0 0 0 0 0 0 0 0 127 0" result="hardAlpha"/>
<feOffset dy="-1.36364"/>
<feGaussianBlur stdDeviation="0.681818"/>
<feComposite in2="hardAlpha" operator="arithmetic" k2="-1" k3="1"/>
<feColorMatrix type="matrix" values="0 0 0 0 1 0 0 0 0 1 0 0 0 0 1 0 0 0 0.08 0"/>
<feBlend mode="normal" in2="shape" result="effect2_innerShadow_11753_7271"/>
<feColorMatrix in="SourceAlpha" type="matrix" values="0 0 0 0 0 0 0 0 0 0 0 0 0 0 0 0 0 0 127 0" result="hardAlpha"/>
<feOffset dy="-1.81818"/>
<feGaussianBlur stdDeviation="0.909091"/>
<feComposite in2="hardAlpha" operator="arithmetic" k2="-1" k3="1"/>
<feColorMatrix type="matrix" values="0 0 0 0 1 0 0 0 0 1 0 0 0 0 1 0 0 0 0.1 0"/>
<feBlend mode="normal" in2="effect2_innerShadow_11753_7271" result="effect3_innerShadow_11753_7271"/>
<feColorMatrix in="SourceAlpha" type="matrix" values="0 0 0 0 0 0 0 0 0 0 0 0 0 0 0 0 0 0 127 0" result="hardAlpha"/>
<feOffset dy="-0.454545"/>
<feGaussianBlur stdDeviation="0.227273"/>
<feComposite in2="hardAlpha" operator="arithmetic" k2="-1" k3="1"/>
<feColorMatrix type="matrix" values="0 0 0 0 1 0 0 0 0 1 0 0 0 0 1 0 0 0 0.15 0"/>
<feBlend mode="normal" in2="effect3_innerShadow_11753_7271" result="effect4_innerShadow_11753_7271"/>
</filter>
</defs>
</svg>
